PathFileType	4	(X/Y/Z)	D:\TRACE\spot_10-12-23\spot_body_motion_3_5-platform.trc
DataRate	CameraRate	NumFrames	NumMarkers	Units	OrigDataRate	OrigDataStartFrame	OrigNumFrames
100.00	100.00	      30	5	mm	100.00	5251	      7000
Frame#	Time	Left_Front			Right_Front			Left_Aft			Right_Aft			Post			
		X1	Y1	Z1	X2	Y2	Z2	X3	Y3	Z3	X4	Y4	Z4	X5	Y5	Z5	

5251	52.500	-803.50128	-4.20085	-644.05902	768.53687	0.32715	-637.22565	-721.00262	12.59898	493.96274	696.10229	18.05774	579.96393	-20.96705	728.31500	-973.50256	
5252	52.510	-803.48798	-4.25295	-644.04541	768.71783	0.24739	-637.14423	-720.91388	12.65182	493.95551	696.16315	18.19991	579.91840	-20.93121	728.18115	-973.79291	
5253	52.520	-803.36920	-4.37514	-644.10504	768.60950	0.22486	-637.23859	-720.80670	12.70970	493.94397	696.20087	18.25204	579.90021	-20.92057	728.06561	-973.95282	
5254	52.530	-803.28900	-4.47284	-644.15521	768.76141	0.13804	-637.18665	-720.67719	12.61755	494.00882	696.23926	18.33859	579.82916	-20.89162	727.94202	-974.08386	
5255	52.540	-803.52673	-4.38189	-644.07294	768.81757	0.07439	-637.22656	-720.61401	12.67862	493.97467	696.28961	18.41444	579.82526	-20.89503	727.85382	-974.11902	
5256	52.550	-803.48193	-4.44870	-644.14417	768.89886	0.02378	-637.24689	-720.66504	12.90862	493.84564	696.34454	18.44415	579.76819	-20.81727	727.79681	-974.16119	
5257	52.560	-803.43335	-4.49105	-644.17432	768.82361	-0.00028	-637.28845	-720.55548	12.92585	493.79840	696.37994	18.53329	579.77155	-20.79185	727.68378	-974.15216	
5258	52.570	-803.37860	-4.59238	-644.13098	768.87347	-0.07335	-637.32391	-720.45422	12.91465	493.85953	696.36798	18.57227	579.76306	-20.78088	727.64044	-974.22736	
5259	52.580	-803.34851	-4.66782	-644.20520	768.93494	-0.10969	-637.30823	-720.41296	12.95475	493.81693	696.43054	18.63271	579.78180	-20.73391	727.54242	-974.22345	
5260	52.590	-803.23688	-4.79864	-644.20203	769.00800	-0.16539	-637.29175	-720.44781	13.04034	493.79623	696.48010	18.66256	579.76245	-20.65306	727.44440	-974.32513	
5261	52.600	-803.10388	-4.96160	-644.19519	769.04144	-0.19363	-637.35565	-720.39502	13.05519	493.83810	696.58142	18.72045	579.74969	-20.57355	727.40222	-974.35138	
5262	52.610	-802.95490	-5.12007	-644.25287	769.05951	-0.22505	-637.36340	-720.28937	13.04041	493.77411	696.72827	18.87314	579.76624	-20.53728	727.28644	-974.42468	
5263	52.620	-802.75208	-5.35262	-644.28418	769.11859	-0.26657	-637.40540	-720.24237	13.08275	493.79575	696.84174	19.00716	579.74316	-20.49035	727.22327	-974.47656	
5264	52.630	-802.84241	-5.11575	-644.34045	769.19678	-0.31692	-637.41986	-720.18573	13.11001	493.75562	696.89490	19.05439	579.74792	-20.43672	727.17206	-974.58453	
5265	52.640	-803.19635	-4.81679	-644.10443	769.25067	-0.37120	-637.45789	-720.07196	13.09615	493.70322	696.95203	19.06812	579.75861	-20.44535	727.07422	-974.64319	
5266	52.650	-803.15076	-4.87746	-644.12140	769.31000	-0.38997	-637.49536	-720.05969	13.14563	493.70187	697.01880	19.08356	579.73676	-20.36315	727.03400	-974.80127	
5267	52.660	-803.08850	-4.91981	-644.06287	769.39185	-0.43774	-637.51324	-720.01410	13.18512	493.72470	697.05652	19.10773	579.70752	-20.31192	727.01044	-974.89441	
5268	52.670	-803.04138	-4.84698	-644.14465	769.45392	-0.43552	-637.53845	-719.99725	13.27506	493.43680	697.12231	19.14573	579.68695	-20.24958	727.00549	-974.99463	
5269	52.680	-802.97968	-4.85890	-644.09735	769.68854	-0.50765	-637.41852	-719.96539	13.25066	493.43600	697.16650	19.14945	579.66699	-20.22496	727.00024	-975.03577	
5270	52.690	-802.90619	-4.90627	-644.08588	769.72656	-0.51855	-637.45300	-719.85419	13.26300	493.70233	697.24207	19.15005	579.65692	-20.19076	727.00879	-975.03094	
5271	52.700	-802.82428	-4.99777	-644.10797	769.82733	-0.53838	-637.39575	-719.77747	13.22042	493.67575	697.33179	19.15154	579.62128	-20.17100	726.98834	-975.10101	
5272	52.710	-802.74084	-5.00740	-644.07806	769.82733	-0.47548	-637.39374	-719.65881	13.23675	493.68127	697.26831	19.15001	579.68732	-20.13457	726.97015	-975.13171	
5273	52.720	-802.63751	-4.84573	-644.11298	769.72717	-0.43096	-637.55389	-719.65527	13.30815	493.42731	697.45935	19.20817	579.62036	-20.09472	726.97565	-975.11060	
5274	52.730	-802.54309	-4.87859	-644.16400	770.06335	-0.63177	-637.39185	-719.60645	13.30731	493.42508	697.68066	19.21396	579.62573	-19.99666	727.01251	-975.10736	
5275	52.740	-802.56281	-5.11724	-644.11023	770.22626	-0.80710	-637.33881	-719.52832	13.20253	493.67490	697.80908	19.32104	579.67163	-19.97224	727.05841	-975.04999	
5276	52.750	-802.54926	-4.98574	-644.08545	770.19763	-0.65374	-637.35052	-719.52155	13.22769	493.38760	697.85431	19.23491	579.63928	-19.84863	727.03046	-975.04199	
5277	52.760	-802.43127	-4.92833	-644.12134	770.03766	-0.58399	-637.49768	-719.41583	13.18988	493.42609	697.99365	19.20734	579.67102	-19.82858	727.06342	-974.88281	
5278	52.770	-802.32239	-4.90742	-644.20215	770.33252	-0.64444	-637.31268	-719.27039	13.09138	493.68344	698.05719	19.31099	579.65314	-19.73230	727.05475	-974.95142	
5279	52.780	-802.28333	-4.86944	-644.21973	770.42975	-0.74842	-637.23413	-719.23828	13.07413	493.66806	698.14081	19.27279	579.68182	-19.59336	727.07526	-974.87195	
5280	52.790	-802.24988	-4.83209	-644.14764	770.48279	-0.49534	-637.20667	-719.25476	13.14697	493.39658	698.27679	19.26122	579.68036	-19.36226	727.05414	-974.87775	
